<svg xmlns="http://www.w3.org/2000/svg" width="55" height="55" fill="none"><path fill="#FFC9D0" fill-rule="evenodd" d="m43.926 36.122-6.068-3.542-2.466-6.74a4.238 4.238 0 0 0-2.19-2.387l-3.947-1.82v-1.84h-4.85v1.82l-3.946 1.82a4.204 4.204 0 0 0-2.176 2.408l-2.467 6.758-6.053 3.523a1.648 1.648 0 0 0 1.54 2.905l6.6-3.157 3.049-6.7s1.371 7.065-1.228 10.805l7.118 2.318 7.124-2.318c-2.6-3.74-1.228-10.804-1.228-10.804l3.044 6.7 6.605 3.156a1.648 1.648 0 0 0 1.54-2.905Z" clip-rule="evenodd"/><path fill="#FE4A64" fill-rule="evenodd" d="M23.674 19.061h6.312v2.104l3.524 1.625a4.97 4.97 0 0 1 2.569 2.8l2.376 6.49 5.856 3.42a2.38 2.38 0 0 1-2.223 4.195l-.016-.008-6.846-3.272-2.07-4.555c-.026.41-.044.853-.048 1.316-.017 2.205.295 4.708 1.459 6.381l.561.808-8.286 2.697-8.28-2.697.561-.808c1.163-1.673 1.476-4.176 1.458-6.38a23.563 23.563 0 0 0-.048-1.32l-2.074 4.558-6.858 3.28A2.38 2.38 0 0 1 9.38 35.5l.016-.01 5.825-3.39 2.375-6.506a4.934 4.934 0 0 1 2.552-2.822l.005-.003 3.522-1.624V19.06Zm-2.722 10.11.718-.14v.003l.001.005.004.018.012.065a22.805 22.805 0 0 1 .165 1.122c.09.741.183 1.77.192 2.92.016 1.974-.212 4.432-1.223 6.399l6.021 1.961 6.027-1.961c-1.012-1.967-1.24-4.425-1.223-6.398a26.187 26.187 0 0 1 .316-3.8l.04-.243.013-.065.003-.018.001-.005v-.002l.719.139-.718-.139.436-2.249 3.881 8.542 6.356 3.038a.916.916 0 0 0 .856-1.615l-6.287-3.67-2.557-6.986a3.508 3.508 0 0 0-1.811-1.975l-.002-.001-4.369-2.015v-1.577h-3.386v1.557l-4.367 2.014-.002.001a3.472 3.472 0 0 0-1.795 1.988l-.003.008-2.557 7.007-6.272 3.65a.916.916 0 0 0 .855 1.614l6.352-3.038 3.886-8.54.436 2.247-.718.139Z" clip-rule="evenodd"/><path fill="#FFE5E9" d="M26.843 20.439a4.958 4.958 0 1 0 0-9.916 4.958 4.958 0 0 0 0 9.916Z"/><path fill="#FE4A64" fill-rule="evenodd" d="M26.843 11.254a4.227 4.227 0 1 0 0 8.454 4.227 4.227 0 0 0 0-8.454Zm-5.69 4.227a5.69 5.69 0 1 1 11.379 0 5.69 5.69 0 0 1-11.379 0Z" clip-rule="evenodd"/><path fill="#FFC9D0" d="M31.82 42.989a1.603 1.603 0 0 0-1.854-.44l-.76.331L18.16 39.29a2.53 2.53 0 0 0-2.994 1.135 2.467 2.467 0 0 0 1.716 3.6l14.07 3.104a1.574 1.574 0 0 0 1.19 1.593 1.569 1.569 0 0 0 1.652-.601 2.373 2.373 0 0 0-.104-2.911l-1.87-2.22Z"/><path fill="#FE4A64" fill-rule="evenodd" d="m18.389 38.594 10.78 3.505.509-.222a2.335 2.335 0 0 1 2.7.64l1.873 2.223a3.104 3.104 0 0 1 .136 3.807 2.301 2.301 0 0 1-4.105-.818l-13.546-2.987a3.198 3.198 0 0 1-2.213-4.667l.009-.017a3.262 3.262 0 0 1 3.857-1.464Zm-2.585 2.187a1.735 1.735 0 0 0 1.212 2.525l.012.002 14.681 3.238-.026.613c-.017.4.248.756.636.853a.838.838 0 0 0 .882-.32 1.642 1.642 0 0 0-.071-2.013l-1.868-2.218a.873.873 0 0 0-1.007-.24l-.002.001-1.01.44-11.309-3.678-.006-.002a1.8 1.8 0 0 0-2.124.799Z" clip-rule="evenodd"/><path fill="#FFC9D0" d="M21.87 42.989a1.598 1.598 0 0 1 1.86-.44l.76.331 11.04-3.591a2.52 2.52 0 0 1 3 1.135 2.467 2.467 0 0 1-1.712 3.601l-14.08 3.103a1.569 1.569 0 0 1-2.837.992 2.363 2.363 0 0 1 .104-2.911l1.865-2.22Z"/><path fill="#FE4A64" fill-rule="evenodd" d="M37.89 40.78a1.79 1.79 0 0 0-2.125-.799l-.01.003-11.304 3.678-1.013-.441a.868.868 0 0 0-1.008.238l-1.865 2.22a1.632 1.632 0 0 0-.072 2.01c.2.278.55.406.883.323a.834.834 0 0 0 .631-.849l-.03-.616 14.694-3.239.011-.002a1.735 1.735 0 0 0 1.208-2.526Zm-2.59-2.185a3.252 3.252 0 0 1 3.864 1.465l.008.015a3.198 3.198 0 0 1-2.208 4.666L23.41 47.73a2.3 2.3 0 0 1-4.102.82 3.093 3.093 0 0 1 .137-3.81l1.864-2.22a2.33 2.33 0 0 1 2.711-.64l.506.22L35.3 38.595ZM20.74 5.905c.18.361.033.8-.329.98-7.932 3.959-11.574 13.284-8.425 21.57a.731.731 0 0 1-1.367.52c-3.417-8.989.535-19.104 9.14-23.398.36-.18.8-.033.98.328ZM33.234 5.906a.731.731 0 0 1 .98-.33c8.613 4.288 12.566 14.41 9.14 23.4a.731.731 0 1 1-1.366-.521c3.157-8.286-.487-17.617-8.425-21.569a.731.731 0 0 1-.329-.98Z" clip-rule="evenodd"/></svg>